<mxfile host="Electron" modified="2025-02-28T08:36:24.010Z" agent="Mozilla/5.0 (Windows NT 10.0; Win64; x64) AppleWebKit/537.36 (KHTML, like Gecko) draw.io/24.2.5 Chrome/120.0.6099.109 Electron/28.1.0 Safari/537.36" etag="7u8zDccxAmM78CRb2uPm" version="24.2.5" type="device">
  <diagram name="第 1 页" id="6FwnHFw-SWT6GoX3d5Yd">
    <mxGraphModel dx="1420" dy="870" grid="1" gridSize="10" guides="1" tooltips="1" connect="1" arrows="1" fold="1" page="1" pageScale="1" pageWidth="1169" pageHeight="827" math="0" shadow="0">
      <root>
        <mxCell id="0" />
        <mxCell id="1" parent="0" />
        <mxCell id="a5kd7CpXYfMfZkq7V9h1-1" value="" style="rounded=1;whiteSpace=wrap;html=1;strokeColor=none;fillColor=#e8e8e8;arcSize=8;" vertex="1" parent="1">
          <mxGeometry x="585" y="210" width="180" height="170" as="geometry" />
        </mxCell>
        <mxCell id="a5kd7CpXYfMfZkq7V9h1-2" value="数据节点" style="text;html=1;align=center;verticalAlign=middle;whiteSpace=wrap;rounded=0;fontSize=18;fontStyle=1" vertex="1" parent="1">
          <mxGeometry x="610" y="220" width="130" height="30" as="geometry" />
        </mxCell>
        <mxCell id="a5kd7CpXYfMfZkq7V9h1-3" value="心跳" style="rounded=0;whiteSpace=wrap;html=1;strokeColor=#6c8ebf;fillColor=#dae8fc;" vertex="1" parent="1">
          <mxGeometry x="595" y="260" width="160" height="30" as="geometry" />
        </mxCell>
        <mxCell id="a5kd7CpXYfMfZkq7V9h1-4" value="文件管理" style="rounded=0;whiteSpace=wrap;html=1;strokeColor=#d79b00;fillColor=#ffe6cc;" vertex="1" parent="1">
          <mxGeometry x="595" y="300" width="160" height="30" as="geometry" />
        </mxCell>
      </root>
    </mxGraphModel>
  </diagram>
</mxfile>
